<svg width="300" height="320" viewBox="0 0 300 320" xmlns="http://www.w3.org/2000/svg">
  <defs>
    <linearGradient id="hyprGradient" x1="0" y1="0" x2="1" y2="1">
      <stop offset="0%" stop-color="#1A3DE6"/>
      <stop offset="100%" stop-color="#29D5FF"/>
    </linearGradient>

    <linearGradient id="naturalWhite" x1="0" y1="0" x2="1" y2="1">
      <stop offset="0%" stop-color="#FFFFFF" stop-opacity="0.9"/>
      <stop offset="70%" stop-color="#E6F7FF" stop-opacity="0.6"/>
      <stop offset="100%" stop-color="#C8F5FF" stop-opacity="0.3"/>
    </linearGradient>
  </defs>

  <path d="M150 20
           C150 20, 70 136, 70 180
           C70 222, 105 250, 150 250
           C195 250, 230 222, 230 180
           C230 136, 150 20, 150 20 Z"
        fill="url(#hyprGradient)"/>

  <path d="M128 84
           C112 110, 104 150, 118 182
           C126 198, 144 202, 156 192
           C138 180, 132 160, 138 132
           C144 112, 158 98, 172 88
           C156 78, 140 76, 128 84 Z"
        fill="url(#naturalWhite)"
        opacity="0.9"/>

  <text x="150" y="295"
        font-family="Inter, Segoe UI, Roboto, sans-serif"
        font-size="32"
        font-weight="700"
        fill="#142032"
        stroke="#0C0C0C"
        stroke-width="0.4"
        paint-order="stroke"
        text-anchor="middle">
    HyprCommunity
  </text>
</svg>
